<svg width="240" height="240" viewBox="0 0 240 240" fill="none" xmlns="http://www.w3.org/2000/svg">
  <rect width="240" height="240" rx="36" fill="#F5ECE4"/>
  <circle cx="120" cy="96" r="42" fill="#EDD4C3"/>
  <path d="M68 198C74 160 93 138 120 138C147 138 166 160 172 198" fill="#F9F6F2"/>
  <path d="M88 77C93 54 107 42 120 42C133 42 147 54 152 77C143 70 132 66 120 66C108 66 97 70 88 77Z" fill="#634F46"/>
  <path d="M72 188C95 168 111 158 120 158C129 158 145 168 168 188" stroke="#D8C4B1" stroke-width="2"/>
</svg>
