<svg width="240" height="240" viewBox="0 0 240 240" fill="none" xmlns="http://www.w3.org/2000/svg">
  <rect width="240" height="240" rx="36" fill="#F2E9DF"/>
  <circle cx="120" cy="98" r="42" fill="#E8CDB8"/>
  <path d="M70 198C77 155 95 137 120 137C145 137 163 155 170 198" fill="#78675C"/>
  <path d="M83 200C92 166 104 150 120 150C136 150 148 166 157 200" fill="#F8F5F1"/>
  <path d="M86 77C92 55 108 44 122 44C136 44 153 54 156 77C143 66 128 61 111 62C100 63 91 67 86 77Z" fill="#5B4A41"/>
</svg>
